HIERARCHY
ROOT hip
{
  OFFSET 68.8281 84.2378 207.652
  CHANNELS 6 Xposition Yposition Zposition Zrotation Xrotation Yrotation
  JOINT abdomen
  {
    OFFSET 0 20.6881 -0.73152
    CHANNELS 3 Zrotation Xrotation Yrotation
    JOINT chest
    {
      OFFSET 0 11.7043 -0.48768
      CHANNELS 3 Zrotation Xrotation Yrotation
      JOINT neck
      {
        OFFSET 0 22.1894 -2.19456
        CHANNELS 3 Zrotation Xrotation Yrotation
        JOINT head
        {
          OFFSET -0.24384 7.07133 1.2192
          CHANNELS 3 Zrotation Xrotation Yrotation
          JOINT leftEye
          {
            OFFSET 4.14528 8.04674 8.04672
            CHANNELS 3 Zrotation Xrotation Yrotation
            End Site
            {
              OFFSET 1 0 0
            }
          }
          JOINT rightEye
          {
            OFFSET -3.6576 8.04674 8.04672
            CHANNELS 3 Zrotation Xrotation Yrotation
            End Site
            {
              OFFSET 1 0 0
            }
          }
        }
      }
      JOINT rCollar
      {
        OFFSET -2.68224 19.2634 -4.8768
        CHANNELS 3 Zrotation Xrotation Yrotation
        JOINT rShldr
        {
          OFFSET -8.77824 -1.95073 1.46304
          CHANNELS 3 Zrotation Xrotation Yrotation
          JOINT rForeArm
          {
            OFFSET -28.1742 -1.7115 0.48768
            CHANNELS 3 Zrotation Xrotation Yrotation
            JOINT rHand
            {
              OFFSET -22.5879 0.773209 7.07136
              CHANNELS 3 Zrotation Xrotation Yrotation
              JOINT rThumb1
              {
                OFFSET -1.2192 -0.487915 3.41376
                CHANNELS 3 Zrotation Xrotation Yrotation
                JOINT rThumb2
                {
                  OFFSET -3.37035 -0.52449 3.41376
                  CHANNELS 3 Zrotation Xrotation Yrotation
                  End Site
                  {
                    OFFSET -1.78271 -1.18214 1.43049
                  }
                }
              }
              JOINT rIndex1
              {
                OFFSET -7.75947 0.938293 5.60832
                CHANNELS 3 Zrotation Xrotation Yrotation
                JOINT rIndex2
                {
                  OFFSET -2.54057 -0.884171 1.56538
                  CHANNELS 3 Zrotation Xrotation Yrotation
                  End Site
                  {
                    OFFSET -1.62519 -0.234802 1.16502
                  }
                }
              }
              JOINT rMid1
              {
                OFFSET -8.24714 1.18213 3.41376
                CHANNELS 3 Zrotation Xrotation Yrotation
                JOINT rMid2
                {
                  OFFSET -3.10165 -0.590103 1.0647
                  CHANNELS 3 Zrotation Xrotation Yrotation
                  End Site
                  {
                    OFFSET -2.48547 -0.328903 0.83742
                  }
                }
              }
              JOINT rRing1
              {
                OFFSET -8.82822 0.546677 1.51678
                CHANNELS 3 Zrotation Xrotation Yrotation
                JOINT rRing2
                {
                  OFFSET -2.60934 -0.819778 -0.0198488
                  CHANNELS 3 Zrotation Xrotation Yrotation
                  End Site
                  {
                    OFFSET -2.33842 -0.294052 0.168128
                  }
                }
              }
              JOINT rPinky1
              {
                OFFSET -8.27202 -0.0477905 -0.4584
                CHANNELS 3 Zrotation Xrotation Yrotation
                JOINT rPinky2
                {
                  OFFSET -1.82734 -0.647385 -0.700984
                  CHANNELS 3 Zrotation Xrotation Yrotation
                  End Site
                  {
                    OFFSET -1.69225 -0.51767 -0.607171
                  }
                }
              }
            }
          }
        }
      }
      JOINT lCollar
      {
        OFFSET 2.68224 19.2634 -4.8768
        CHANNELS 3 Zrotation Xrotation Yrotation
        JOINT lShldr
        {
          OFFSET 8.77824 -1.95073 1.46304
          CHANNELS 3 Zrotation Xrotation Yrotation
          JOINT lForeArm
          {
            OFFSET 28.1742 -1.7115 0.48768
            CHANNELS 3 Zrotation Xrotation Yrotation
            JOINT lHand
            {
              OFFSET 22.5879 0.773209 7.07136
              CHANNELS 3 Zrotation Xrotation Yrotation
              JOINT lThumb1
              {
                OFFSET 1.2192 -0.487915 3.41376
                CHANNELS 3 Zrotation Xrotation Yrotation
                JOINT lThumb2
                {
                  OFFSET 3.37035 -0.52449 3.41376
                  CHANNELS 3 Zrotation Xrotation Yrotation
                  End Site
                  {
                    OFFSET 1.78271 -1.18214 1.43049
                  }
                }
              }
              JOINT lIndex1
              {
                OFFSET 7.75947 0.938293 5.60832
                CHANNELS 3 Zrotation Xrotation Yrotation
                JOINT lIndex2
                {
                  OFFSET 2.54057 -0.884171 1.56538
                  CHANNELS 3 Zrotation Xrotation Yrotation
                  End Site
                  {
                    OFFSET 1.62519 -0.234802 1.16502
                  }
                }
              }
              JOINT lMid1
              {
                OFFSET 8.24714 1.18213 3.41376
                CHANNELS 3 Zrotation Xrotation Yrotation
                JOINT lMid2
                {
                  OFFSET 3.10165 -0.590103 1.0647
                  CHANNELS 3 Zrotation Xrotation Yrotation
                  End Site
                  {
                    OFFSET 2.48547 -0.328903 0.83742
                  }
                }
              }
              JOINT lRing1
              {
                OFFSET 8.82822 0.546677 1.51678
                CHANNELS 3 Zrotation Xrotation Yrotation
                JOINT lRing2
                {
                  OFFSET 2.60934 -0.819778 -0.0198488
                  CHANNELS 3 Zrotation Xrotation Yrotation
                  End Site
                  {
                    OFFSET 2.33842 -0.294052 0.168128
                  }
                }
              }
              JOINT lPinky1
              {
                OFFSET 8.27202 -0.0477905 -0.4584
                CHANNELS 3 Zrotation Xrotation Yrotation
                JOINT lPinky2
                {
                  OFFSET 1.82734 -0.647385 -0.700984
                  CHANNELS 3 Zrotation Xrotation Yrotation
                  End Site
                  {
                    OFFSET 1.69225 -0.51767 -0.607171
                  }
                }
              }
            }
          }
        }
      }
    }
  }
  JOINT rButtock
  {
    OFFSET -8.77824 4.35084 1.2192
    CHANNELS 3 Zrotation Xrotation Yrotation
    JOINT rThigh
    {
      OFFSET 0 -1.70687 -2.19456
      CHANNELS 3 Zrotation Xrotation Yrotation
      JOINT rShin
      {
        OFFSET 0 -36.8199 0.73152
        CHANNELS 3 Zrotation Xrotation Yrotation
        JOINT rFoot
        {
          OFFSET 0.73152 -45.1104 -5.12064
          CHANNELS 3 Zrotation Xrotation Yrotation
          End Site
          {
            OFFSET -1.1221 -3.69964 12.103
          }
        }
      }
    }
  }
  JOINT lButtock
  {
    OFFSET 8.77824 4.35084 1.2192
    CHANNELS 3 Zrotation Xrotation Yrotation
    JOINT lThigh
    {
      OFFSET 0 -1.70687 -2.19456
      CHANNELS 3 Zrotation Xrotation Yrotation
      JOINT lShin
      {
        OFFSET 0 -36.8199 0.73152
        CHANNELS 3 Zrotation Xrotation Yrotation
        JOINT lFoot
        {
          OFFSET -0.73152 -45.1104 -5.12064
          CHANNELS 3 Zrotation Xrotation Yrotation
          End Site
          {
            OFFSET 1.1221 -3.69964 12.103
          }
        }
      }
    }
  }
}
MOTION
Frames:	4
Frame Time:	0.00833333
52.5784 85.5069 -206.273 -1.70035 0.00694332 0.03233 2.23596 -0.000458413 0.0604513 0.615891 0.00897675 0.106607 2.74933e-014 -7.95139e-016 3.97569e-016 8.21415e-014 9.54166e-015 1.01411e-015 -0 0 0 -0 0 0 1.37148e-014 -7.37677e-017 2.98177e-016 2.89914e-013 -1.61513e-015 5.36719e-015 4.95317e-012 -1.53323e-012 4.13472e-014 5.66369e-011 1.20558e-012 8.23764e-013 1.336e-010 -7.12024e-013 1.87017e-012 2.30717e-010 -1.22769e-012 3.21634e-012 1.33608e-010 -7.10059e-013 1.85744e-012 7.73091 5.47488 0.417314 1.336e-010 -7.12047e-013 1.87017e-012 2.90554 0.965183 0.102902 1.33612e-010 -7.1145e-013 1.86699e-012 10.2786 0.731801 0.0259123 1.33587e-010 -7.09661e-013 1.87653e-012 2.22167 -0.733487 -0.20892 1.3619e-014 -7.51266e-017 0 2.85148e-013 -1.31695e-015 3.97569e-015 4.94452e-012 1.43224e-012 1.27222e-014 5.66288e-011 -1.76305e-012 8.5875e-013 1.33573e-010 -7.20992e-013 1.86699e-012 2.30676e-010 -1.24678e-012 3.2227e-012 1.33571e-010 -7.20396e-013 1.87335e-012 -7.73091 5.47488 -0.417314 1.33572e-010 -7.20793e-013 1.86699e-012 -2.90554 0.965183 -0.102902 1.33563e-010 -7.20495e-013 1.86699e-012 -10.2786 0.731801 -0.0259123 1.33581e-010 -7.17215e-013 1.86381e-012 -2.22167 -0.733487 0.20892 -2.03217e-016 0 -3.88251e-019 2.20812 -7.80167 -0.224 0.00524174 8.55963 0.136052 -0.54521 -0.766553 0.0458495 2.03217e-016 0 3.88251e-019 1.18449 -1.92859 -0.00255039 0.00908685 -2.07858 0.0749442 0.513168 3.99847 -0.140485 
52.9508 84.9958 -207.675 -1.52707 1.19744 0.376993 1.68222 -2.53524 0.602481 0.275745 0.759985 0.280351 -0.595563 4.5774 -1.13016 2.66471 -6.86886 -1.69632 -0 0 0 -0 0 0 2.76631e-015 -3.336e-014 -1.08609e-014 22.0718 8.29549 -2.19909 -4.31756 -1.98157 6.72206 0.00220964 1.05254 0.147838 1.46411e-010 -2.98311e-010 1.58412e-010 2.54127e-010 -5.16727e-010 2.73241e-010 1.46419e-010 -2.98311e-010 1.58397e-010 7.73091 5.47488 0.417314 1.4641e-010 -2.98313e-010 1.5841e-010 2.90554 0.965183 0.102902 1.46421e-010 -2.98314e-010 1.58409e-010 10.2786 0.731801 0.0259123 1.464e-010 -2.98311e-010 1.58416e-010 2.22167 -0.733487 -0.20892 2.66783e-015 -3.33597e-014 -1.11614e-014 -20.9812 12.181 -0.3489 3.14572 -1.26671 -5.07579 -0.0110666 -2.33569 0.327278 4.1221e-010 -5.63481e-011 -2.35508e-010 7.12645e-010 -9.69989e-011 -4.04776e-010 4.12209e-010 -5.63459e-011 -2.35499e-010 -7.73091 5.47488 -0.417314 4.12211e-010 -5.63467e-011 -2.35509e-010 -2.90554 0.965183 -0.102902 4.12201e-010 -5.63457e-011 -2.35508e-010 -10.2786 0.731801 -0.0259123 4.12216e-010 -5.6344e-011 -2.35512e-010 -2.22167 -0.733487 0.20892 -2.03217e-016 0 -3.88251e-019 2.41464 -6.69505 2.20881 0.00798529 8.85576 0.152361 -1.02152 -6.03345 -5.35141 2.03217e-016 0 3.88251e-019 2.16688 -1.84838 -0.45446 0.00634152 -1.35986 0.0334727 0.431757 2.31052 -1.40049 
52.9724 84.9924 -207.674 -1.3607 2.45596 0.742286 1.14738 -5.21296 1.17814 -0.0900718 1.55398 0.463918 -1.02235 9.39936 -2.33737 5.03459 -14.0896 -3.54851 -0 0 0 -0 0 0 -9.2614e-015 -7.16211e-014 -2.33386e-014 46.13 17.0316 -4.68223 -8.38219 -3.98703 13.8573 -0.00137307 2.14866 0.301967 1.60134e-010 -6.29934e-010 3.40535e-010 2.79299e-010 -1.09119e-009 5.87452e-010 1.60142e-010 -6.29935e-010 3.40518e-010 7.73091 5.47488 0.417314 1.60133e-010 -6.29937e-010 3.40531e-010 2.90554 0.965183 0.102902 1.60143e-010 -6.2994e-010 3.40532e-010 10.2786 0.731801 0.0259123 1.60127e-010 -6.29937e-010 3.40537e-010 2.22167 -0.733487 -0.20892 -9.36286e-015 -7.1619e-014 -2.3643e-014 -42.9833 25.0495 -0.766776 6.2312 -2.57444 -10.4544 0.00632462 -4.79385 0.673563 7.31412e-010 -1.13117e-010 -5.08208e-010 1.26482e-009 -1.94588e-010 -8.73547e-010 7.31412e-010 -1.13113e-010 -5.08196e-010 -7.73091 5.47488 -0.417314 7.31414e-010 -1.13114e-010 -5.0821e-010 -2.90554 0.965183 -0.102902 7.31404e-010 -1.13112e-010 -5.08208e-010 -10.2786 0.731801 -0.0259123 7.31415e-010 -1.13112e-010 -5.08213e-010 -2.22167 -0.733487 0.20892 -2.03217e-016 0 -3.88251e-019 2.53193 -5.51604 4.77005 0.0106971 9.16836 0.16965 -2.617 -11.4382 -11.2214 2.03217e-016 0 3.88251e-019 3.20852 -1.76346 -0.931382 0.00449099 -0.600119 -0.010207 0.265047 0.528112 -2.73202 
52.9892 84.9933 -207.672 -1.22355 3.5779 1.06815 0.719701 -7.60191 1.69972 -0.418222 2.26189 0.628254 -1.23179 13.7105 -3.47892 6.70544 -20.5318 -5.39613 -0 0 0 -0 0 0 -1.91308e-014 -9.99326e-014 -3.31792e-014 68.2846 24.7322 -7.19083 -11.5842 -5.61809 20.2556 -0.00968707 3.15755 0.444115 1.72032e-010 -8.9351e-010 4.71495e-010 3.00948e-010 -1.54773e-009 8.13289e-010 1.7204e-010 -8.93512e-010 4.71476e-010 7.73091 5.47488 0.417314 1.72029e-010 -8.93515e-010 4.71489e-010 2.90554 0.965183 0.102902 1.72039e-010 -8.93518e-010 4.71492e-010 10.2786 0.731801 0.0259123 1.72027e-010 -8.93515e-010 4.71495e-010 2.22167 -0.733487 -0.20892 -1.92344e-014 -9.9929e-014 -3.34843e-014 -62.4061 36.5369 -1.27343 8.7715 -3.68103 -15.2559 0.0473585 -7.00616 0.988399 9.69484e-010 -1.67602e-010 -7.10257e-010 1.67658e-009 -2.88503e-010 -1.22077e-009 9.69484e-010 -1.67597e-010 -7.10243e-010 -7.73091 5.47488 -0.417314 9.69487e-010 -1.67598e-010 -7.1026e-010 -2.90554 0.965183 -0.102902 9.69477e-010 -1.67596e-010 -7.10257e-010 -10.2786 0.731801 -0.0259123 9.69484e-010 -1.67598e-010 -7.10263e-010 -2.22167 -0.733487 0.20892 -2.03217e-016 0 -3.88251e-019 2.54499 -4.46266 7.04654 0.0129596 9.44802 0.185071 -5.00797 -15.9787 -16.7206 2.03217e-016 0 3.88251e-019 4.13548 -1.68767 -1.35816 0.00397113 0.0775837 -0.0494 0.0464504 -1.06086 -3.91843 
